<mxfile host="app.diagrams.net" modified="2023-06-29T02:29:55.753Z" agent="Mozilla/5.0 (Windows NT 10.0; Win64; x64) AppleWebKit/537.36 (KHTML, like Gecko) Chrome/114.0.0.0 Safari/537.36 Edg/114.0.1823.58" etag="xhGNaqzx6Gwu875ksh4S" version="21.5.0" type="github">
  <diagram id="C5RBs43oDa-KdzZeNtuy" name="Page-1">
    <mxGraphModel dx="1434" dy="764" grid="1" gridSize="10" guides="1" tooltips="1" connect="1" arrows="1" fold="1" page="1" pageScale="1" pageWidth="827" pageHeight="1169" math="0" shadow="0">
      <root>
        <mxCell id="WIyWlLk6GJQsqaUBKTNV-0" />
        <mxCell id="WIyWlLk6GJQsqaUBKTNV-1" parent="WIyWlLk6GJQsqaUBKTNV-0" />
        <mxCell id="Fk84bM9Be0scv3hmc3IK-40" value="" style="edgeStyle=orthogonalEdgeStyle;rounded=0;orthogonalLoop=1;jettySize=auto;html=1;" edge="1" parent="WIyWlLk6GJQsqaUBKTNV-1" source="Fk84bM9Be0scv3hmc3IK-36" target="Fk84bM9Be0scv3hmc3IK-39">
          <mxGeometry relative="1" as="geometry" />
        </mxCell>
        <mxCell id="Fk84bM9Be0scv3hmc3IK-36" value="创建补贴策略" style="rounded=1;whiteSpace=wrap;html=1;fontSize=14;glass=0;strokeWidth=1;shadow=0;" vertex="1" parent="WIyWlLk6GJQsqaUBKTNV-1">
          <mxGeometry x="310" y="10" width="120" height="50" as="geometry" />
        </mxCell>
        <mxCell id="Fk84bM9Be0scv3hmc3IK-44" value="" style="edgeStyle=orthogonalEdgeStyle;rounded=0;orthogonalLoop=1;jettySize=auto;html=1;" edge="1" parent="WIyWlLk6GJQsqaUBKTNV-1" source="Fk84bM9Be0scv3hmc3IK-39" target="Fk84bM9Be0scv3hmc3IK-43">
          <mxGeometry relative="1" as="geometry" />
        </mxCell>
        <mxCell id="Fk84bM9Be0scv3hmc3IK-39" value="运营商充电数据采集（充电订单）" style="rounded=1;whiteSpace=wrap;html=1;fontSize=14;glass=0;strokeWidth=1;shadow=0;" vertex="1" parent="WIyWlLk6GJQsqaUBKTNV-1">
          <mxGeometry x="310" y="140" width="120" height="50" as="geometry" />
        </mxCell>
        <mxCell id="Fk84bM9Be0scv3hmc3IK-48" value="" style="edgeStyle=orthogonalEdgeStyle;rounded=0;orthogonalLoop=1;jettySize=auto;html=1;" edge="1" parent="WIyWlLk6GJQsqaUBKTNV-1" source="Fk84bM9Be0scv3hmc3IK-43" target="Fk84bM9Be0scv3hmc3IK-47">
          <mxGeometry relative="1" as="geometry" />
        </mxCell>
        <mxCell id="Fk84bM9Be0scv3hmc3IK-60" style="edgeStyle=orthogonalEdgeStyle;rounded=0;orthogonalLoop=1;jettySize=auto;html=1;entryX=0.5;entryY=0;entryDx=0;entryDy=0;" edge="1" parent="WIyWlLk6GJQsqaUBKTNV-1" source="Fk84bM9Be0scv3hmc3IK-43" target="Fk84bM9Be0scv3hmc3IK-45">
          <mxGeometry relative="1" as="geometry" />
        </mxCell>
        <mxCell id="Fk84bM9Be0scv3hmc3IK-43" value="运营商资格判断" style="rhombus;whiteSpace=wrap;html=1;fontSize=14;rounded=1;glass=0;strokeWidth=1;shadow=0;" vertex="1" parent="WIyWlLk6GJQsqaUBKTNV-1">
          <mxGeometry x="330" y="255" width="80" height="80" as="geometry" />
        </mxCell>
        <mxCell id="Fk84bM9Be0scv3hmc3IK-50" value="" style="edgeStyle=orthogonalEdgeStyle;rounded=0;orthogonalLoop=1;jettySize=auto;html=1;" edge="1" parent="WIyWlLk6GJQsqaUBKTNV-1" source="Fk84bM9Be0scv3hmc3IK-45" target="Fk84bM9Be0scv3hmc3IK-49">
          <mxGeometry relative="1" as="geometry" />
        </mxCell>
        <mxCell id="Fk84bM9Be0scv3hmc3IK-45" value="计算补贴金额" style="whiteSpace=wrap;html=1;fontSize=14;rounded=1;glass=0;strokeWidth=1;shadow=0;" vertex="1" parent="WIyWlLk6GJQsqaUBKTNV-1">
          <mxGeometry x="310" y="425" width="120" height="50" as="geometry" />
        </mxCell>
        <mxCell id="Fk84bM9Be0scv3hmc3IK-47" value="取消补贴资格" style="whiteSpace=wrap;html=1;fontSize=14;rounded=1;glass=0;strokeWidth=1;shadow=0;" vertex="1" parent="WIyWlLk6GJQsqaUBKTNV-1">
          <mxGeometry x="510" y="270" width="120" height="50" as="geometry" />
        </mxCell>
        <mxCell id="Fk84bM9Be0scv3hmc3IK-65" style="edgeStyle=orthogonalEdgeStyle;rounded=0;orthogonalLoop=1;jettySize=auto;html=1;entryX=0.5;entryY=0;entryDx=0;entryDy=0;" edge="1" parent="WIyWlLk6GJQsqaUBKTNV-1" source="Fk84bM9Be0scv3hmc3IK-49" target="Fk84bM9Be0scv3hmc3IK-51">
          <mxGeometry relative="1" as="geometry" />
        </mxCell>
        <mxCell id="Fk84bM9Be0scv3hmc3IK-49" value="待补贴" style="whiteSpace=wrap;html=1;fontSize=14;rounded=1;glass=0;strokeWidth=1;shadow=0;" vertex="1" parent="WIyWlLk6GJQsqaUBKTNV-1">
          <mxGeometry x="310" y="555" width="120" height="50" as="geometry" />
        </mxCell>
        <mxCell id="Fk84bM9Be0scv3hmc3IK-54" value="" style="edgeStyle=orthogonalEdgeStyle;rounded=0;orthogonalLoop=1;jettySize=auto;html=1;" edge="1" parent="WIyWlLk6GJQsqaUBKTNV-1" source="Fk84bM9Be0scv3hmc3IK-51" target="Fk84bM9Be0scv3hmc3IK-53">
          <mxGeometry relative="1" as="geometry" />
        </mxCell>
        <mxCell id="Fk84bM9Be0scv3hmc3IK-51" value="已补贴" style="whiteSpace=wrap;html=1;fontSize=14;rounded=1;glass=0;strokeWidth=1;shadow=0;" vertex="1" parent="WIyWlLk6GJQsqaUBKTNV-1">
          <mxGeometry x="310" y="685" width="120" height="50" as="geometry" />
        </mxCell>
        <mxCell id="Fk84bM9Be0scv3hmc3IK-56" value="" style="edgeStyle=orthogonalEdgeStyle;rounded=0;orthogonalLoop=1;jettySize=auto;html=1;" edge="1" parent="WIyWlLk6GJQsqaUBKTNV-1" source="Fk84bM9Be0scv3hmc3IK-53" target="Fk84bM9Be0scv3hmc3IK-55">
          <mxGeometry relative="1" as="geometry" />
        </mxCell>
        <mxCell id="Fk84bM9Be0scv3hmc3IK-53" value="补贴发放公示" style="whiteSpace=wrap;html=1;fontSize=14;rounded=1;glass=0;strokeWidth=1;shadow=0;" vertex="1" parent="WIyWlLk6GJQsqaUBKTNV-1">
          <mxGeometry x="310" y="815" width="120" height="50" as="geometry" />
        </mxCell>
        <mxCell id="Fk84bM9Be0scv3hmc3IK-55" value="建立资产档案" style="whiteSpace=wrap;html=1;fontSize=14;rounded=1;glass=0;strokeWidth=1;shadow=0;" vertex="1" parent="WIyWlLk6GJQsqaUBKTNV-1">
          <mxGeometry x="310" y="945" width="120" height="50" as="geometry" />
        </mxCell>
        <mxCell id="Fk84bM9Be0scv3hmc3IK-57" value="不符合" style="text;html=1;strokeColor=none;fillColor=none;align=center;verticalAlign=middle;whiteSpace=wrap;rounded=0;fontSize=14;" vertex="1" parent="WIyWlLk6GJQsqaUBKTNV-1">
          <mxGeometry x="420" y="270" width="60" height="30" as="geometry" />
        </mxCell>
        <mxCell id="Fk84bM9Be0scv3hmc3IK-58" value="符合" style="text;html=1;strokeColor=none;fillColor=none;align=center;verticalAlign=middle;whiteSpace=wrap;rounded=0;fontSize=14;" vertex="1" parent="WIyWlLk6GJQsqaUBKTNV-1">
          <mxGeometry x="340" y="360" width="60" height="30" as="geometry" />
        </mxCell>
        <mxCell id="Fk84bM9Be0scv3hmc3IK-61" value="修改补贴状态" style="text;html=1;strokeColor=none;fillColor=none;align=center;verticalAlign=middle;whiteSpace=wrap;rounded=0;fontSize=14;" vertex="1" parent="WIyWlLk6GJQsqaUBKTNV-1">
          <mxGeometry x="340" y="630" width="60" height="30" as="geometry" />
        </mxCell>
      </root>
    </mxGraphModel>
  </diagram>
</mxfile>
